<svg width="583" height="731" viewBox="0 0 583 731" fill="none" xmlns="http://www.w3.org/2000/svg">
<path d="M31.32 705.739C26.1526 684.309 22.9424 628.675 51.4412 577.583" stroke="#D0AD64" stroke-width="49.6009" stroke-linecap="round"/>
<path d="M31.0003 237.022C40.3305 225.428 83.411 272.968 83.411 272.968L94.5004 203.866C94.5004 203.866 103.143 146.209 128.281 141.791C144.649 138.913 167.91 157.3 167.91 157.3C167.91 157.3 167.875 38.3682 218.533 37.859C255.128 37.4911 290 106.522 290 106.522C290 106.522 330.894 40.5306 371.202 25.6089C404.643 13.2294 434.067 0.0285469 462.426 21.6464C490.785 43.2644 485.593 75.1132 482.774 110.66C479.622 150.403 439.752 198.022 439.752 198.022C439.752 198.022 540.699 232.54 533 272.968C528.047 298.975 495.605 305.83 473.532 320.449C451.337 335.149 410.201 345.674 410.201 345.674C410.201 345.674 437.301 361.939 439.752 379.226C443.523 405.826 392 419.522 392 419.522L327.5 443.022C327.5 443.022 381.479 470.286 373 484.022C336.489 543.167 210.37 632.887 77.8098 540.657C-54.7502 448.426 -15.4376 294.726 31.0003 237.022Z" fill="#D0AD64" stroke="#D0AD64" stroke-width="16.5336" stroke-linecap="round"/>
</svg>
